<svg preserveAspectRatio="none" width="100%" height="100%" overflow="visible" style="display: block;" viewBox="0 0 107.381 86.6901" fill="none" xmlns="http://www.w3.org/2000/svg">
<g id="Group 9">
<g id="Group 8">
<rect id="Rectangle 98" x="55.6369" y="25.669" width="32.3053" height="18.8448" rx="2.69211" stroke="var(--stroke-0, #001286)" stroke-width="3.58948"/>
<rect id="Rectangle 99" x="43.971" y="27.4638" width="5.38422" height="14.3579" rx="2.69211" stroke="var(--stroke-0, #001286)" stroke-width="3.58948"/>
<rect id="Rectangle 100" x="48.907" y="31.5019" width="7.17896" height="6.28159" rx="3.14079" fill="var(--fill-0, #001286)" stroke="var(--stroke-0, #001286)" stroke-width="0.89737"/>
<path id="Vector 5" d="M78.0712 51.6926V80.4085C78.0712 82.8865 76.0623 84.8953 73.5843 84.8953H65.9991C63.7454 84.8953 61.9185 83.0684 61.9185 80.8147C61.9185 79.5254 62.5279 78.3119 63.5621 77.5418L64.9135 76.5356C66.0506 75.6889 66.7206 74.3545 66.7206 72.9368V51.6926" stroke="var(--stroke-0, #001286)" stroke-width="3.58948" stroke-linecap="round"/>
<path id="Vector 3" d="M99.0691 29.9557C95.8942 27.5792 87.9424 27.4637 87.9424 27.4637V34.164C87.9424 34.164 93.4984 33.8174 95.615 35.5998C97.7315 37.3822 99.0691 41.8216 99.0691 41.8216H104.992C104.992 41.8216 102.244 32.3323 99.0691 29.9557Z" stroke="var(--stroke-0, #001286)" stroke-width="3.58948"/>
<rect id="Rectangle 101" x="62.3672" y="43.1677" width="19.7421" height="8.07633" rx="4.03817" fill="var(--fill-0, #001286)" stroke="var(--stroke-0, #001286)" stroke-width="0.89737"/>
</g>
<path id="Vector 4" d="M55.1883 81.7545H28.8482C26.3702 81.7545 24.3614 79.7456 24.3614 77.2676V38.6807M37.4444 32.2172H16.2C11.6493 32.2172 9.98939 26.2241 13.8917 23.8829L49.6425 2.43407C51.1139 1.55128 52.96 1.58502 54.3982 2.52099L80.3146 19.3873" stroke="var(--stroke-0, #FF9705)" stroke-width="3.58948" stroke-linecap="round"/>
</g>
</svg>
